<svg width="84" height="90" viewBox="0 0 84 90" fill="none" xmlns="http://www.w3.org/2000/svg">
<path d="M19.6418 62.667C22.6531 60.1346 24.373 54.0572 24.373 54.0572C24.373 54.0572 22.5739 38.7235 27.3258 32.6896C33.3625 25.0245 41.6284 21.0462 51.4696 27.276C60.2283 32.8205 59.383 44.6247 54.6317 51.0254C48.9158 58.7255 43.899 58.7707 35.7883 61.6571C32.8629 64.8619 31.3864 66.5013 30.2651 69.9785C29.2436 73.1463 16.3022 65.4757 19.6418 62.667Z" fill="white" stroke="#111111" stroke-width="1.091" stroke-linecap="round"/>
<path d="M23.0046 65.1147C28.7613 56.0682 37.8764 37.6086 32.7765 36.5542C29.8623 35.9517 33.1827 41.8291 37.3822 45.1621C40.2708 47.4545 49.3443 50.2558 47.9501 46.8358C46.5559 43.4157 36.4459 48.7825 26.7329 66.9788" stroke="#FF9900" stroke-width="2.18201" stroke-linecap="round" stroke-linejoin="round"/>
<path d="M27.2823 75.093C27.2823 75.093 20.6045 75.4859 15.708 67.9654" stroke="black" stroke-width="2.18201" stroke-linecap="round" stroke-linejoin="round"/>
<path d="M30.047 70.9467C30.047 70.9467 23.4158 71.1281 18.3429 64.0793" stroke="black" stroke-width="2.18201" stroke-linecap="round" stroke-linejoin="round"/>
<path d="M23.4513 78.81C23.4513 78.81 17.749 77.8861 14.1078 73.052" stroke="black" stroke-width="2.18201" stroke-linecap="round" stroke-linejoin="round"/>
<path d="M51.4808 61.8756L61.6454 76.2947" stroke="#FFB800" stroke-width="3.43714" stroke-linecap="round" stroke-linejoin="round"/>
<path d="M59.0009 53.573L68.2655 58.9717" stroke="#FFB800" stroke-width="3.43714" stroke-linecap="round" stroke-linejoin="round"/>
<path d="M62.8138 43.0537L79.4757 43.9929" stroke="#FFB800" stroke-width="3.43714" stroke-linecap="round" stroke-linejoin="round"/>
<path d="M28.549 5.62753L34.1916 21.0089" stroke="#FFB800" stroke-width="3.43714" stroke-linecap="round" stroke-linejoin="round"/>
<path d="M2.8407 30.3047L19.1935 37.0089" stroke="#FFB800" stroke-width="3.43714" stroke-linecap="round" stroke-linejoin="round"/>
<path d="M62.7466 30.1071L73.0668 26.027" stroke="#FFB800" stroke-width="3.43714" stroke-linecap="round" stroke-linejoin="round"/>
<path d="M44.845 18.5167L45.7353 7.61784" stroke="#FFB800" stroke-width="3.43714" stroke-linecap="round" stroke-linejoin="round"/>
<path d="M25.6538 27.2024C22.1645 24.139 20.2083 22.4215 16.7191 19.3581" stroke="#FFB800" stroke-width="3.43714" stroke-linecap="round" stroke-linejoin="round"/>
<path d="M55.2815 21.6201L65.9474 8.14399" stroke="#FFB800" stroke-width="3.43714" stroke-linecap="round" stroke-linejoin="round"/>
</svg>
