<svg width="37" height="19" viewBox="0 0 37 19" fill="none" xmlns="http://www.w3.org/2000/svg">
<path d="M1.9996 9.27597L33.6387 9.27597" stroke="white" stroke-width="2.18201" stroke-linecap="round"/>
<path d="M28.7977 1.25531C28.3865 0.814821 27.6962 0.791015 27.2557 1.20214C26.8152 1.61327 26.7914 2.30364 27.2025 2.74414L28.7977 1.25531ZM35.0001 9.49973L35.7977 10.2441C36.1889 9.82497 36.1889 9.17448 35.7977 8.75531L35.0001 9.49973ZM27.2025 16.2553C26.7914 16.6958 26.8152 17.3862 27.2557 17.7973C27.6962 18.2084 28.3865 18.1846 28.7977 17.7441L27.2025 16.2553ZM27.2025 2.74414L34.2025 10.2441L35.7977 8.75531L28.7977 1.25531L27.2025 2.74414ZM34.2025 8.75531L27.2025 16.2553L28.7977 17.7441L35.7977 10.2441L34.2025 8.75531Z" fill="white"/>
</svg>
